<?xml version="1.0" standalone="no"?>
<!DOCTYPE svg PUBLIC "-//W3C//DTD SVG 20010904//EN"
 "http://www.w3.org/TR/2001/REC-SVG-20010904/DTD/svg10.dtd">
<svg version="1.0" xmlns="http://www.w3.org/2000/svg"
 width="651.000000pt" height="383.000000pt" viewBox="0 0 651.000000 383.000000"
 preserveAspectRatio="xMidYMid meet">

<g transform="translate(0.000000,383.000000) scale(0.100000,-0.100000)"
fill="#000000" stroke="none">
<path d="M2086 2422 c-6 -9 -316 -822 -316 -828 0 -3 48 -3 107 -2 l107 3 39
100 c22 55 59 154 82 220 l43 119 11 -69 c6 -39 22 -137 34 -220 l23 -150 107
-3 c104 -3 108 -2 116 20 30 76 311 813 311 815 0 2 -50 2 -112 1 l-111 -3
-54 -140 c-29 -77 -63 -170 -75 -207 -12 -38 -25 -68 -28 -68 -3 0 -21 95 -39
210 l-34 210 -103 0 c-56 0 -105 -3 -108 -8z"/>
<path d="M2785 2413 c-170 -443 -305 -802 -305 -811 0 -9 71 -12 293 -12 l294
0 28 93 c15 50 30 97 32 102 2 6 -56 9 -167 7 -192 -3 -184 -8 -149 77 l22 51
102 0 103 0 36 90 c20 50 36 95 36 100 0 6 -40 10 -100 10 -55 0 -100 1 -100
3 0 1 9 25 19 52 l19 50 167 3 166 2 45 96 c24 52 44 97 44 100 0 2 -130 4
-289 4 -266 0 -289 -1 -296 -17z"/>
<path d="M3460 2423 c0 -5 21 -96 46 -204 l47 -197 -196 -208 c-109 -115 -197
-212 -197 -216 0 -4 55 -8 123 -8 l122 0 90 104 c102 119 97 120 115 -16 l12
-88 129 0 c71 0 129 3 129 8 0 4 -16 101 -36 216 l-37 208 209 204 209 203
-131 0 -130 1 -93 -95 c-52 -52 -95 -95 -96 -95 -1 0 -8 43 -15 95 l-13 95
-143 0 c-79 0 -144 -3 -144 -7z"/>
<path d="M4211 2320 c-22 -61 -41 -113 -41 -115 0 -3 43 -5 96 -5 87 0 96 -2
91 -17 -2 -10 -52 -143 -111 -295 -58 -153 -106 -282 -106 -288 0 -6 42 -10
110 -10 109 0 111 0 122 26 7 14 60 151 118 303 l106 276 103 5 103 5 43 113
43 112 -318 0 -318 0 -41 -110z"/>
<path d="M2254 1451 c-51 -31 -73 -131 -36 -164 43 -39 129 -26 160 23 11 18
10 22 -10 29 -17 7 -28 4 -45 -11 -29 -27 -57 -20 -61 14 -6 54 42 102 73 72
18 -19 65 -11 65 11 0 42 -92 59 -146 26z"/>
<path d="M2478 1454 c-54 -29 -79 -132 -40 -167 28 -25 74 -31 114 -14 45 19
69 54 75 111 4 35 1 48 -16 65 -25 25 -92 28 -133 5z m90 -57 c9 -47 -44 -103
-77 -82 -16 9 -13 57 5 83 19 28 67 27 72 -1z"/>
<path d="M2680 1466 c0 -5 -27 -140 -35 -174 -5 -21 -2 -23 22 -20 25 3 29 9
38 55 14 74 25 76 25 5 0 -59 1 -62 25 -62 21 0 30 11 55 63 17 34 28 51 26
37 -3 -14 -8 -42 -11 -62 -7 -36 -6 -38 19 -38 14 0 26 2 26 4 0 5 27 139 35
174 5 20 2 22 -35 22 -38 0 -41 -2 -69 -57 -25 -48 -30 -53 -31 -32 0 15 -3
41 -6 58 -6 28 -10 31 -45 31 -22 0 -39 -2 -39 -4z"/>
<path d="M2946 1458 c-6 -19 -36 -172 -36 -181 0 -4 13 -7 29 -7 29 0 41 14
41 51 0 14 7 19 30 19 41 0 76 18 89 47 27 59 3 83 -85 83 -43 0 -66 -4 -68
-12z m100 -39 c9 -15 -21 -43 -39 -36 -21 8 -10 47 14 47 10 0 21 -5 25 -11z"/>
<path d="M3141 1420 c-16 -74 -14 -125 6 -141 9 -8 38 -14 64 -14 64 0 96 31
115 111 20 86 19 94 -15 94 -27 0 -29 -3 -41 -62 -16 -81 -26 -100 -53 -96
-24 3 -27 25 -13 111 l8 47 -30 0 c-28 0 -31 -3 -41 -50z"/>
<path d="M3370 1461 c0 -5 -3 -16 -6 -25 -5 -13 1 -16 26 -16 32 0 33 -1 26
-37 -21 -124 -22 -113 12 -113 28 0 32 4 38 38 19 108 18 107 49 110 30 4 45
16 45 40 0 9 -26 12 -95 12 -52 0 -95 -4 -95 -9z"/>
<path d="M3568 1370 l-57 -100 33 0 c21 0 36 6 40 15 3 9 19 15 41 15 24 0 35
-4 35 -15 0 -10 11 -15 35 -15 32 0 34 2 29 28 -3 15 -11 59 -17 97 -13 70
-13 70 -48 73 -33 2 -35 0 -91 -98z m85 -22 c-6 -11 -33 -10 -33 2 0 5 6 21
12 36 l13 28 6 -30 c3 -16 4 -32 2 -36z"/>
<path d="M3830 1463 c-82 -30 -103 -163 -30 -193 49 -20 140 16 140 56 0 22
-43 25 -58 3 -22 -31 -56 -21 -60 18 -6 59 40 100 73 66 10 -10 25 -13 40 -9
30 8 31 20 5 46 -20 20 -74 26 -110 13z"/>
<path d="M4005 1458 c-5 -18 -35 -168 -35 -179 0 -5 14 -9 30 -9 17 0 30 2 30
4 0 5 27 139 35 174 5 19 1 22 -25 22 -17 0 -32 -6 -35 -12z"/>
<path d="M4154 1460 c-48 -19 -85 -100 -69 -150 9 -29 68 -53 108 -44 48 10
74 31 91 75 22 54 20 76 -9 104 -25 26 -78 33 -121 15z m76 -77 c0 -40 -23
-73 -51 -73 -25 0 -38 28 -29 61 13 43 19 49 51 49 27 0 29 -3 29 -37z"/>
<path d="M4345 1448 c-8 -35 -35 -169 -35 -174 0 -2 13 -4 29 -4 27 0 30 4 36
43 11 62 15 63 41 8 20 -45 27 -51 53 -51 24 0 32 5 36 23 8 34 35 168 35 173
0 2 -13 4 -29 4 -28 0 -30 -3 -37 -45 -3 -25 -10 -47 -14 -50 -4 -2 -17 18
-30 45 -20 43 -28 50 -52 50 -20 0 -29 -6 -33 -22z"/>
</g>
</svg>
