<svg width="309" height="81" viewBox="0 0 309 81" fill="none" xmlns="http://www.w3.org/2000/svg">
<path d="M65.1565 76.6806L46.4679 76.6806L37.2163 31.5326L18.8366 76.6806L0.0409412 76.6806L29.5783 4.1248L48.374 4.12482L57.572 49.2729L75.9517 4.12485L94.6938 4.12487L65.1565 76.6806Z" fill="black"/>
<path d="M104.243 45.9342L121.804 45.9342L127.099 32.928L109.538 32.9279L115.766 17.6294L150.787 17.6295L156.284 4.12494L102.468 4.12488L73.5397 77.3758L126.64 76.6807L132.117 63.226L114.66 63.226L105.932 63.226L97.9103 63.331L100.723 54.5801L104.243 45.9342Z" fill="black"/>
<path d="M216.06 4.12501L193.497 28.2438L190.571 4.12498L169.151 4.12495L176.245 40.1039L157.635 58.3923L139.025 76.6807L160.658 76.6807L183.779 52.1135L186.897 76.6808L208.585 76.6808L201.092 40.1039L237.533 4.12503L216.06 4.12501Z" fill="black"/>
<path d="M303.279 17.6558L279.878 17.6558L255.838 76.707L237.042 76.707L261.082 17.6558L238.11 17.6558L243.607 4.15121L308.776 4.15129L303.279 17.6558Z" fill="black"/>
</svg>
