<svg width="315" height="81" viewBox="0 0 315 81" fill="none" xmlns="http://www.w3.org/2000/svg">
<path d="M67.7512 78.0578L68.821 78.0578L69.2263 77.0622L98.7636 4.50644L99.1689 3.51087L98.0991 3.51087L79.357 3.51085L78.2872 3.51085L77.8819 4.50641L61.0353 45.8884L52.5043 4.0144L52.4017 3.51082L51.7793 3.51082L32.9836 3.5108L31.9138 3.5108L31.5085 4.50636L1.97112 77.0621L1.56583 78.0577L2.63565 78.0577L21.4313 78.0577L22.5012 78.0577L22.9064 77.0622L39.7556 35.6738L48.3377 77.5549L48.4407 78.0577L49.0626 78.0577L67.7512 78.0578Z" fill="black" stroke="black" stroke-width="2.14"/>
<path d="M124.399 47.3113L125.468 47.3113L125.874 46.3157L131.169 33.3095L131.574 32.314L130.504 32.314L114.013 32.3139L119.43 19.0066L153.381 19.0066L154.451 19.0066L154.857 18.011L160.354 4.5065L160.759 3.51094L159.69 3.51094L105.873 3.51088L104.791 3.51087L104.393 4.51772L75.4653 77.7687L75.0711 78.767L76.1495 78.7529L129.25 78.0577L130.31 78.0438L130.71 77.0623L136.187 63.6076L136.592 62.612L135.523 62.612L118.066 62.612L109.337 62.612L109.33 62.612L109.322 62.6121L102.308 62.7039L104.809 54.922L107.907 47.3113L124.399 47.3113Z" fill="black" stroke="black" stroke-width="2.14"/>
<path d="M164.436 77.5054L185.869 54.7321L188.759 77.5054L188.829 78.0579L189.492 78.0579L211.179 78.0579L213.02 78.0579L212.715 76.5697L205.322 40.483L241.266 4.99548L242.769 3.51103L240.938 3.51103L219.465 3.51101L218.799 3.511L218.279 4.06725L197.415 26.3692L194.709 4.06723L194.642 3.51098L193.976 3.51098L172.556 3.51095L170.727 3.51095L171.02 4.99449L178.017 40.4829L159.905 58.2821L141.295 76.5705L139.781 78.0578L141.619 78.0578L163.253 78.0579L163.916 78.0579L164.436 77.5054Z" fill="black" stroke="black" stroke-width="2.14"/>
<path d="M305.873 19.033L306.943 19.033L307.349 18.0374L312.846 4.53285L313.251 3.53729L312.182 3.53729L247.013 3.53721L245.943 3.53721L245.537 4.53277L240.04 18.0373L239.634 19.0329L240.704 19.0329L262.607 19.0329L238.973 77.0886L238.567 78.0841L239.637 78.0841L258.433 78.0842L259.503 78.0842L259.908 77.0886L283.542 19.0329L305.873 19.033Z" fill="black" stroke="black" stroke-width="2.14"/>
<path d="M171.085 38.6271L136.925 74.7891L143.55 58.6701L143.933 57.7364L142.93 57.7364L126.789 57.7364L140.608 23.7921L156.748 23.7921L157.738 23.7921L158.123 22.8714L165.128 6.12502L171.085 38.6271Z" fill="#00BBF2" stroke="#00BBF2" stroke-width="2"/>
</svg>
