<svg width="315" height="81" viewBox="0 0 315 81" fill="none" xmlns="http://www.w3.org/2000/svg" style="">
<path d="M67.7512 77.6762L68.821 77.6762L69.2263 76.6806L98.7636 4.12488L99.1689 3.12931L98.0991 3.12931L79.357 3.12929L78.2872 3.12929L77.8819 4.12485L61.0353 45.5069L52.5043 3.63284L52.4017 3.12926L51.7793 3.12926L32.9836 3.12924L31.9138 3.12924L31.5085 4.1248L1.97112 76.6806L1.56583 77.6761L2.63565 77.6761L21.4313 77.6762L22.5012 77.6762L22.9064 76.6806L39.7556 35.2922L48.3377 77.1733L48.4407 77.6762L49.0626 77.6762L67.7512 77.6762Z" stroke="black" stroke-width="2.14" class="uoamnLnD_0"></path>
<path d="M124.399 46.9297L125.468 46.9297L125.874 45.9342L131.169 32.928L131.574 31.9324L130.504 31.9324L114.013 31.9324L119.43 18.625L153.381 18.625L154.451 18.625L154.857 17.6295L160.354 4.12494L160.759 3.12938L159.69 3.12938L105.873 3.12931L104.791 3.12931L104.393 4.13616L75.4653 77.3871L75.0711 78.3854L76.1495 78.3713L129.25 77.6762L130.31 77.6623L130.71 76.6807L136.187 63.226L136.592 62.2304L135.523 62.2304L118.066 62.2304L109.337 62.2304L109.33 62.2304L109.322 62.2305L102.308 62.3223L104.809 54.5404L107.907 46.9297L124.399 46.9297Z" stroke="black" stroke-width="2.14" class="uoamnLnD_1"></path>
<path d="M164.436 77.1238L185.869 54.3505L188.759 77.1238L188.829 77.6763L189.492 77.6763L211.179 77.6764L213.02 77.6764L212.715 76.1881L205.322 40.1014L241.266 4.61392L242.769 3.12947L240.938 3.12947L219.465 3.12944L218.799 3.12944L218.279 3.68569L197.415 25.9877L194.709 3.68567L194.642 3.12942L193.976 3.12942L172.556 3.12939L170.727 3.12939L171.02 4.61293L178.017 40.1014L159.905 57.9005L141.295 76.1889L139.781 77.6763L141.619 77.6763L163.253 77.6763L163.916 77.6763L164.436 77.1238Z" stroke="black" stroke-width="2.14" class="uoamnLnD_2"></path>
<path d="M305.873 18.6514L306.943 18.6514L307.349 17.6558L312.846 4.15129L313.251 3.15573L312.182 3.15572L247.013 3.15565L245.943 3.15565L245.537 4.15121L240.04 17.6558L239.634 18.6513L240.704 18.6513L262.607 18.6513L238.973 76.707L238.567 77.7026L239.637 77.7026L258.433 77.7026L259.503 77.7026L259.908 76.707L283.542 18.6514L305.873 18.6514Z" stroke="black" stroke-width="2.14" class="uoamnLnD_3"></path>
<style data-made-with="vivus-instant">.uoamnLnD_0{stroke-dasharray:422 424;stroke-dashoffset:423;animation:uoamnLnD_draw 2200ms ease-out 0ms forwards;}.uoamnLnD_1{stroke-dasharray:377 379;stroke-dashoffset:378;animation:uoamnLnD_draw 2200ms ease-out 0ms forwards;}.uoamnLnD_2{stroke-dasharray:389 391;stroke-dashoffset:390;animation:uoamnLnD_draw 2200ms ease-out 0ms forwards;}.uoamnLnD_3{stroke-dasharray:296 298;stroke-dashoffset:297;animation:uoamnLnD_draw 2200ms ease-out 0ms forwards;}@keyframes uoamnLnD_draw{100%{stroke-dashoffset:0;}}@keyframes uoamnLnD_fade{0%{stroke-opacity:1;}90.9090909090909%{stroke-opacity:1;}100%{stroke-opacity:0;}}</style></svg>
